<?xml version="1.0" standalone="no"?>
<!DOCTYPE svg PUBLIC "-//W3C//DTD SVG 20010904//EN"
 "http://www.w3.org/TR/2001/REC-SVG-20010904/DTD/svg10.dtd">
<svg version="1.0" xmlns="http://www.w3.org/2000/svg"
 width="6305.000000pt" height="6305.000000pt" viewBox="0 0 6305.000000 6305.000000"
 preserveAspectRatio="xMidYMid meet">
<metadata>
Created by potrace 1.11, written by Peter Selinger 2001-2013
</metadata>
<g transform="translate(0.000000,6305.000000) scale(0.100000,-0.100000)"
fill="#000000" stroke="none">
<path d="M30355 63044 c-44 -2 -210 -8 -370 -14 -3111 -117 -6262 -721 -9200
-1765 -4079 -1450 -7781 -3713 -10965 -6704 -418 -393 -1170 -1155 -1586
-1606 -2243 -2437 -4115 -5268 -5477 -8285 -2049 -4541 -2973 -9481 -2712
-14505 250 -4809 1595 -9452 3953 -13645 1739 -3094 4002 -5873 6712 -8245
2323 -2033 5005 -3744 7855 -5012 3434 -1528 7132 -2418 10915 -2627 655 -37
836 -41 1755 -41 919 0 1100 4 1755 41 5050 279 9907 1763 14245 4352 1593
951 3151 2084 4555 3312 818 716 1706 1582 2446 2385 2439 2649 4435 5761
5820 9072 1841 4401 2640 9122 2359 13938 -272 4659 -1593 9202 -3860 13280
-1773 3190 -4095 6050 -6854 8444 -5147 4467 -11577 7117 -18351 7565 -237 16
-473 29 -830 47 -197 10 -1978 20 -2165 13z m13565 -24956 c0 -12455 -4
-19199 -10 -19378 -54 -1499 -340 -2871 -885 -4252 -853 -2157 -2315 -4069
-4190 -5474 -1737 -1302 -3760 -2131 -5905 -2418 -1120 -150 -2272 -150 -3390
0 -3273 439 -6237 2139 -8291 4754 -793 1010 -1440 2163 -1894 3375 -430 1148
-690 2363 -775 3615 -8 118 -28 665 -30 803 0 16 188 17 3803 17 l3804 0 6
-203 c49 -1601 902 -3117 2262 -4024 991 -660 2184 -949 3374 -818 1487 164
2831 985 3668 2240 306 459 544 987 682 1517 71 270 115 520 153 878 10 90 13
3398 15 15493 l3 15377 -2540 0 -2540 0 0 3800 0 3800 6340 0 6340 0 0 -19102z"/>
</g>
</svg>
